<?xml version="1.0" standalone="no"?>
<!DOCTYPE svg PUBLIC "-//W3C//DTD SVG 20010904//EN"
 "http://www.w3.org/TR/2001/REC-SVG-20010904/DTD/svg10.dtd">
<svg version="1.0" xmlns="http://www.w3.org/2000/svg"
 width="512.000000pt" height="512.000000pt" viewBox="0 0 512.000000 512.000000"
 preserveAspectRatio="xMidYMid meet">
<metadata>
Created by potrace 1.14, written by Peter Selinger 2001-2017
</metadata>
<g transform="translate(0.000000,512.000000) scale(0.100000,-0.100000)"
fill="#000000" stroke="none">
<path d="M1170 4951 c0 -4 54 -156 121 -337 66 -181 147 -403 180 -494 34 -91
64 -174 69 -185 4 -11 13 -36 20 -55 7 -19 16 -44 20 -55 5 -11 43 -114 85
-230 92 -253 131 -360 146 -400 7 -16 13 -34 15 -40 1 -5 16 -46 32 -90 41
-111 241 -655 292 -795 23 -63 45 -124 50 -135 5 -11 28 -73 51 -137 29 -83
47 -118 58 -119 74 -4 1005 -3 1010 1 4 3 -53 169 -126 370 -73 201 -142 390
-152 420 -11 30 -60 165 -109 300 -184 501 -496 1358 -532 1460 -21 58 -61
168 -90 245 -28 77 -63 173 -78 213 l-26 72 -518 0 c-286 0 -518 -4 -518 -9z"/>
<path d="M3623 3420 c0 -1110 3 -1540 11 -1541 15 -1 987 -1 1004 0 9 1 12
316 12 1541 l0 1540 -513 0 -514 0 0 -1540z"/>
<path d="M974 2994 c-5 -2 -34 -5 -64 -7 -184 -16 -354 -115 -465 -272 -90
-126 -127 -253 -121 -412 14 -359 319 -643 676 -628 88 4 94 5 170 25 160 43
334 190 402 340 28 60 47 110 43 110 -1 0 3 20 10 44 18 58 17 210 -1 288 -41
179 -180 356 -339 433 -84 41 -106 50 -142 60 -27 7 -157 22 -169 19z"/>
<path d="M3992 1465 c-102 -22 -219 -85 -299 -160 -375 -347 -241 -951 247
-1115 86 -29 248 -35 340 -14 234 55 412 220 486 449 33 101 38 265 11 360
-84 295 -336 491 -636 493 -48 1 -114 -5 -149 -13z"/>
</g>
</svg>
